<svg xmlns="http://www.w3.org/2000/svg" viewBox="0 0 320 280" fill="none" aria-hidden="true">
  <rect width="320" height="280" rx="8" fill="#FFF7F2"/>
  <!-- Chat bubbles -->
  <rect x="40" y="48" width="160" height="64" rx="8" fill="#fff" stroke="#E85D24" stroke-width="1.2"/>
  <rect x="56" y="64" width="100" height="6" rx="2" fill="#E85D24" fill-opacity="0.12"/>
  <rect x="56" y="78" width="128" height="4" rx="1" fill="#E85D24" fill-opacity="0.08"/>
  <rect x="56" y="88" width="80" height="4" rx="1" fill="#E85D24" fill-opacity="0.06"/>
  <rect x="120" y="128" width="160" height="64" rx="8" fill="#E85D24" fill-opacity="0.04" stroke="#E85D24" stroke-width="1.2"/>
  <rect x="136" y="144" width="100" height="6" rx="2" fill="#E85D24" fill-opacity="0.15"/>
  <rect x="136" y="158" width="120" height="4" rx="1" fill="#E85D24" fill-opacity="0.1"/>
  <rect x="136" y="168" width="72" height="4" rx="1" fill="#E85D24" fill-opacity="0.08"/>
  <!-- Person silhouette -->
  <circle cx="80" cy="220" r="20" fill="#E85D24" fill-opacity="0.08" stroke="#E85D24" stroke-width="1.2"/>
  <path d="M52 268 Q80 240 108 268" fill="#E85D24" fill-opacity="0.06" stroke="#E85D24" stroke-width="1.2"/>
  <!-- Support person -->
  <circle cx="240" cy="220" r="20" fill="#E85D24" fill-opacity="0.12" stroke="#E85D24" stroke-width="1.2"/>
  <path d="M212 268 Q240 240 268 268" fill="#E85D24" fill-opacity="0.08" stroke="#E85D24" stroke-width="1.2"/>
  <!-- Connection -->
  <path d="M108 220 Q160 200 212 220" stroke="#E85D24" stroke-width="1" stroke-dasharray="4 4" opacity="0.3"/>
</svg>
