<svg xmlns="http://www.w3.org/2000/svg" viewBox="0 0 200 40" fill="none" aria-hidden="true">
  <!-- Icon 1: Contact -->
  <g id="flow-contact">
    <rect x="2" y="6" width="28" height="28" rx="6" fill="#E85D24" fill-opacity="0.06" stroke="#E85D24" stroke-width="1.2"/>
    <rect x="8" y="14" width="16" height="10" rx="1" stroke="#E85D24" stroke-width="1.2"/>
    <path d="M8 14 L16 20 L24 14" stroke="#E85D24" stroke-width="1.2" stroke-linecap="round"/>
  </g>
  <!-- Icon 2: Hearing -->
  <g id="flow-hearing" transform="translate(40,0)">
    <rect x="2" y="6" width="28" height="28" rx="6" fill="#E85D24" fill-opacity="0.06" stroke="#E85D24" stroke-width="1.2"/>
    <circle cx="16" cy="18" r="6" stroke="#E85D24" stroke-width="1.2"/>
    <path d="M10 26 Q16 30 22 26" stroke="#E85D24" stroke-width="1.2" stroke-linecap="round"/>
  </g>
  <!-- Icon 3: Proposal -->
  <g id="flow-proposal" transform="translate(80,0)">
    <rect x="2" y="6" width="28" height="28" rx="6" fill="#E85D24" fill-opacity="0.06" stroke="#E85D24" stroke-width="1.2"/>
    <rect x="8" y="12" width="16" height="18" rx="1" stroke="#E85D24" stroke-width="1.2"/>
    <line x1="11" y1="17" x2="21" y2="17" stroke="#E85D24" stroke-width="1"/>
    <line x1="11" y1="22" x2="19" y2="22" stroke="#E85D24" stroke-width="1"/>
  </g>
  <!-- Icon 4: Start -->
  <g id="flow-start" transform="translate(120,0)">
    <rect x="2" y="6" width="28" height="28" rx="6" fill="#E85D24" fill-opacity="0.06" stroke="#E85D24" stroke-width="1.2"/>
    <path d="M12 16 L22 20 L12 24 Z" fill="#E85D24" fill-opacity="0.2" stroke="#E85D24" stroke-width="1.2" stroke-linejoin="round"/>
  </g>
  <!-- Icon 5: Improve -->
  <g id="flow-improve" transform="translate(160,0)">
    <rect x="2" y="6" width="28" height="28" rx="6" fill="#E85D24" fill-opacity="0.06" stroke="#E85D24" stroke-width="1.2"/>
    <path d="M10 24 L16 12 L22 24" stroke="#E85D24" stroke-width="1.2" stroke-linecap="round" stroke-linejoin="round"/>
    <line x1="12" y1="20" x2="20" y2="20" stroke="#E85D24" stroke-width="1.2" stroke-linecap="round"/>
  </g>
</svg>
