<svg xmlns="http://www.w3.org/2000/svg" viewBox="0 0 480 400" fill="none" aria-hidden="true">
  <defs>
    <linearGradient id="hg-bg" x1="0" y1="0" x2="480" y2="400" gradientUnits="userSpaceOnUse">
      <stop offset="0%" stop-color="#FFEDE4"/>
      <stop offset="100%" stop-color="#FFF7F2"/>
    </linearGradient>
    <linearGradient id="hg-growth" x1="0" y1="1" x2="1" y2="0">
      <stop offset="0%" stop-color="#E85D24" stop-opacity="0.1"/>
      <stop offset="100%" stop-color="#FF8C42" stop-opacity="0.2"/>
    </linearGradient>
  </defs>
  <rect width="480" height="400" rx="12" fill="url(#hg-bg)"/>
  <!-- City skyline -->
  <path d="M40 280h48v-60h24v60h32v-90h20v90h40v-50h28v50h36v-70h20v70h40v-40h24v40h52v80H40v-80z" fill="#E85D24" fill-opacity="0.06" stroke="#E85D24" stroke-width="1.2" stroke-linejoin="round"/>
  <!-- Growth line -->
  <path d="M60 260 Q180 200 280 180 T420 100" stroke="#E85D24" stroke-width="2" stroke-linecap="round" stroke-dasharray="4 6" opacity="0.3"/>
  <path d="M60 260 Q180 200 280 180 T420 100" stroke="#E85D24" stroke-width="2.5" stroke-linecap="round"/>
  <circle cx="420" cy="100" r="6" fill="#E85D24"/>
  <!-- Web screen -->
  <rect x="72" y="120" width="140" height="100" rx="6" fill="#fff" stroke="#E85D24" stroke-width="1.5"/>
  <rect x="72" y="120" width="140" height="22" rx="6" fill="#E85D24" fill-opacity="0.08"/>
  <circle cx="84" cy="131" r="3" fill="#E85D24" fill-opacity="0.3"/>
  <circle cx="94" cy="131" r="3" fill="#E85D24" fill-opacity="0.2"/>
  <circle cx="104" cy="131" r="3" fill="#E85D24" fill-opacity="0.15"/>
  <rect x="84" y="154" width="80" height="6" rx="2" fill="#E85D24" fill-opacity="0.15"/>
  <rect x="84" y="168" width="116" height="4" rx="1" fill="#E85D24" fill-opacity="0.08"/>
  <rect x="84" y="178" width="100" height="4" rx="1" fill="#E85D24" fill-opacity="0.08"/>
  <rect x="84" y="188" width="60" height="4" rx="1" fill="#E85D24" fill-opacity="0.08"/>
  <!-- AI node cluster -->
  <circle cx="340" cy="200" r="36" fill="url(#hg-growth)" stroke="#E85D24" stroke-width="1.5"/>
  <circle cx="340" cy="200" r="12" fill="#E85D24" fill-opacity="0.15" stroke="#E85D24" stroke-width="1.2"/>
  <line x1="340" y1="164" x2="340" y2="152" stroke="#E85D24" stroke-width="1.2"/>
  <line x1="340" y1="236" x2="340" y2="248" stroke="#E85D24" stroke-width="1.2"/>
  <line x1="304" y1="200" x2="292" y2="200" stroke="#E85D24" stroke-width="1.2"/>
  <line x1="376" y1="200" x2="388" y2="200" stroke="#E85D24" stroke-width="1.2"/>
  <circle cx="340" cy="152" r="5" fill="#fff" stroke="#E85D24" stroke-width="1.2"/>
  <circle cx="340" cy="248" r="5" fill="#fff" stroke="#E85D24" stroke-width="1.2"/>
  <circle cx="292" cy="200" r="5" fill="#fff" stroke="#E85D24" stroke-width="1.2"/>
  <circle cx="388" cy="200" r="5" fill="#fff" stroke="#E85D24" stroke-width="1.2"/>
  <!-- Connection lines -->
  <path d="M212 170 L304 190" stroke="#E85D24" stroke-width="1" stroke-dasharray="3 4" opacity="0.4"/>
  <path d="M340 164 L340 130" stroke="#E85D24" stroke-width="1" opacity="0.3"/>
  <!-- Floating cards -->
  <rect x="260" y="60" width="72" height="44" rx="4" fill="#fff" stroke="#E85D24" stroke-width="1.2" opacity="0.9"/>
  <text x="272" y="86" font-family="sans-serif" font-size="11" font-weight="600" fill="#E85D24" letter-spacing="1">AI</text>
  <rect x="160" y="48" width="72" height="44" rx="4" fill="#fff" stroke="#E85D24" stroke-width="1.2" opacity="0.9"/>
  <text x="168" y="74" font-family="sans-serif" font-size="11" font-weight="600" fill="#E85D24" letter-spacing="1">Web</text>
</svg>
