<svg xmlns="http://www.w3.org/2000/svg" viewBox="0 0 360 200" fill="none" aria-hidden="true">
  <rect width="360" height="200" fill="#FFF7F2"/>
  <!-- Browser window -->
  <rect x="60" y="24" width="240" height="152" rx="8" fill="#fff" stroke="#E85D24" stroke-width="1.5"/>
  <rect x="60" y="24" width="240" height="28" rx="8" fill="#E85D24" fill-opacity="0.06"/>
  <rect x="60" y="44" width="240" height="8" fill="#E85D24" fill-opacity="0.06"/>
  <circle cx="76" cy="38" r="4" fill="#E85D24" fill-opacity="0.2"/>
  <circle cx="90" cy="38" r="4" fill="#E85D24" fill-opacity="0.12"/>
  <circle cx="104" cy="38" r="4" fill="#E85D24" fill-opacity="0.08"/>
  <!-- Layout blocks -->
  <rect x="76" y="64" width="208" height="40" rx="3" fill="#E85D24" fill-opacity="0.05" stroke="#E85D24" stroke-width="0.8" stroke-opacity="0.2"/>
  <rect x="76" y="114" width="96" height="48" rx="3" fill="#E85D24" fill-opacity="0.04" stroke="#E85D24" stroke-width="0.8" stroke-opacity="0.15"/>
  <rect x="184" y="114" width="100" height="20" rx="2" fill="#E85D24" fill-opacity="0.08"/>
  <rect x="184" y="142" width="72" height="6" rx="1" fill="#E85D24" fill-opacity="0.06"/>
  <rect x="184" y="154" width="88" height="6" rx="1" fill="#E85D24" fill-opacity="0.04"/>
  <!-- Mobile -->
  <rect x="280" y="80" width="48" height="80" rx="6" fill="#fff" stroke="#E85D24" stroke-width="1.2"/>
  <rect x="288" y="92" width="32" height="48" rx="2" fill="#E85D24" fill-opacity="0.05"/>
  <circle cx="304" cy="150" r="3" fill="#E85D24" fill-opacity="0.15"/>
</svg>
