<svg xmlns="http://www.w3.org/2000/svg" viewBox="0 0 360 200" fill="none" aria-hidden="true">
  <rect width="360" height="200" fill="#FFF7F2"/>
  <!-- Central AI hub -->
  <circle cx="180" cy="100" r="40" fill="#E85D24" fill-opacity="0.06" stroke="#E85D24" stroke-width="1.5"/>
  <circle cx="180" cy="100" r="14" fill="#E85D24" fill-opacity="0.12" stroke="#E85D24" stroke-width="1.2"/>
  <!-- Workflow nodes -->
  <rect x="40" y="72" width="72" height="56" rx="6" fill="#fff" stroke="#E85D24" stroke-width="1.2"/>
  <rect x="48" y="88" width="48" height="4" rx="1" fill="#E85D24" fill-opacity="0.1"/>
  <rect x="48" y="98" width="36" height="4" rx="1" fill="#E85D24" fill-opacity="0.08"/>
  <rect x="48" y="108" width="48" height="4" rx="1" fill="#E85D24" fill-opacity="0.06"/>
  <rect x="248" y="48" width="72" height="56" rx="6" fill="#fff" stroke="#E85D24" stroke-width="1.2"/>
  <rect x="256" y="64" width="48" height="4" rx="1" fill="#E85D24" fill-opacity="0.1"/>
  <rect x="256" y="74" width="36" height="4" rx="1" fill="#E85D24" fill-opacity="0.08"/>
  <rect x="256" y="84" width="48" height="4" rx="1" fill="#E85D24" fill-opacity="0.06"/>
  <rect x="248" y="128" width="72" height="56" rx="6" fill="#fff" stroke="#E85D24" stroke-width="1.2"/>
  <rect x="256" y="144" width="48" height="4" rx="1" fill="#E85D24" fill-opacity="0.1"/>
  <rect x="256" y="154" width="36" height="4" rx="1" fill="#E85D24" fill-opacity="0.08"/>
  <rect x="256" y="164" width="48" height="4" rx="1" fill="#E85D24" fill-opacity="0.06"/>
  <rect x="40" y="128" width="72" height="56" rx="6" fill="#fff" stroke="#E85D24" stroke-width="1.2"/>
  <rect x="48" y="144" width="48" height="4" rx="1" fill="#E85D24" fill-opacity="0.1"/>
  <rect x="48" y="154" width="36" height="4" rx="1" fill="#E85D24" fill-opacity="0.08"/>
  <rect x="48" y="164" width="48" height="4" rx="1" fill="#E85D24" fill-opacity="0.06"/>
  <!-- Connection lines -->
  <path d="M112 100 H140" stroke="#E85D24" stroke-width="1" stroke-dasharray="3 3" opacity="0.4"/>
  <path d="M220 100 H248" stroke="#E85D24" stroke-width="1" stroke-dasharray="3 3" opacity="0.4"/>
  <path d="M200 72 L248 76" stroke="#E85D24" stroke-width="1" stroke-dasharray="3 3" opacity="0.3"/>
  <path d="M200 128 L248 156" stroke="#E85D24" stroke-width="1" stroke-dasharray="3 3" opacity="0.3"/>
  <path d="M112 156 L160 120" stroke="#E85D24" stroke-width="1" stroke-dasharray="3 3" opacity="0.3"/>
</svg>
