<svg xmlns="http://www.w3.org/2000/svg" viewBox="0 0 320 160" fill="none" aria-hidden="true">
  <defs>
    <linearGradient id="ms-bg" x1="0" y1="0" x2="320" y2="160" gradientUnits="userSpaceOnUse">
      <stop offset="0%" stop-color="#FFEDE4"/>
      <stop offset="100%" stop-color="#FFF7F2"/>
    </linearGradient>
    <radialGradient id="ms-blob1" cx="0" cy="0" r="1" gradientUnits="userSpaceOnUse" gradientTransform="translate(280 30) rotate(90) scale(50)">
      <stop stop-color="#FF8C42" stop-opacity="0.25"/>
      <stop offset="1" stop-color="#FF8C42" stop-opacity="0"/>
    </radialGradient>
    <radialGradient id="ms-blob2" cx="0" cy="0" r="1" gradientUnits="userSpaceOnUse" gradientTransform="translate(40 130) rotate(90) scale(40)">
      <stop stop-color="#E85D24" stop-opacity="0.15"/>
      <stop offset="1" stop-color="#E85D24" stop-opacity="0"/>
    </radialGradient>
    <linearGradient id="ms-header" x1="0" y1="0" x2="1" y2="0">
      <stop offset="0%" stop-color="#E85D24"/>
      <stop offset="100%" stop-color="#FF7A45"/>
    </linearGradient>
    <filter id="ms-shadow" x="-10%" y="-10%" width="120%" height="130%">
      <feDropShadow dx="0" dy="3" stdDeviation="4" flood-color="#E85D24" flood-opacity="0.12"/>
    </filter>
  </defs>
  <rect width="320" height="160" fill="url(#ms-bg)"/>
  <circle cx="280" cy="30" r="50" fill="url(#ms-blob1)"/>
  <circle cx="40" cy="130" r="40" fill="url(#ms-blob2)"/>
  <!-- Long document (before) -->
  <g filter="url(#ms-shadow)">
    <rect x="16" y="32" width="80" height="96" rx="5" fill="#fff" stroke="#D1D5DB" stroke-width="1.2"/>
    <rect x="28" y="48" width="56" height="4" rx="1" fill="#E5E7EB"/>
    <rect x="28" y="58" width="48" height="3" rx="1" fill="#F3F4F6"/>
    <rect x="28" y="68" width="56" height="3" rx="1" fill="#F3F4F6"/>
    <rect x="28" y="78" width="40" height="3" rx="1" fill="#F3F4F6"/>
    <rect x="28" y="88" width="52" height="3" rx="1" fill="#F3F4F6"/>
    <rect x="28" y="98" width="36" height="3" rx="1" fill="#F3F4F6"/>
    <rect x="28" y="108" width="48" height="3" rx="1" fill="#F3F4F6"/>
  </g>
  <!-- Arrow -->
  <circle cx="120" cy="80" r="14" fill="#E85D24" fill-opacity="0.12"/>
  <path d="M112 80 H128" stroke="#E85D24" stroke-width="2" stroke-linecap="round"/>
  <path d="M122 74 L130 80 L122 86" stroke="#E85D24" stroke-width="2" stroke-linecap="round" stroke-linejoin="round"/>
  <!-- Summary card (after) -->
  <g filter="url(#ms-shadow)">
    <rect x="148" y="24" width="156" height="112" rx="8" fill="#fff" stroke="#F0E4DC" stroke-width="1"/>
    <rect x="148" y="24" width="156" height="28" rx="8" fill="url(#ms-header)"/>
    <rect x="148" y="44" width="156" height="8" fill="url(#ms-header)"/>
    <circle cx="164" cy="38" r="5" fill="#fff" fill-opacity="0.9"/>
    <rect x="174" y="35" width="48" height="5" rx="2" fill="#fff" fill-opacity="0.7"/>
    <circle cx="168" cy="68" r="7" fill="#3AAF7A" fill-opacity="0.15" stroke="#3AAF7A" stroke-width="1.2"/>
    <path d="M165 68 L167 70 L171 66" stroke="#3AAF7A" stroke-width="1.5" stroke-linecap="round" stroke-linejoin="round"/>
    <rect x="182" y="64" width="100" height="4" rx="1" fill="#E85D24" fill-opacity="0.25"/>
    <circle cx="168" cy="88" r="7" fill="#3AAF7A" fill-opacity="0.15" stroke="#3AAF7A" stroke-width="1.2"/>
    <path d="M165 88 L167 90 L171 86" stroke="#3AAF7A" stroke-width="1.5" stroke-linecap="round" stroke-linejoin="round"/>
    <rect x="182" y="84" width="80" height="4" rx="1" fill="#E85D24" fill-opacity="0.18"/>
    <circle cx="168" cy="108" r="7" fill="#3AAF7A" fill-opacity="0.15" stroke="#3AAF7A" stroke-width="1.2"/>
    <path d="M165 108 L167 110 L171 106" stroke="#3AAF7A" stroke-width="1.5" stroke-linecap="round" stroke-linejoin="round"/>
    <rect x="182" y="104" width="90" height="4" rx="1" fill="#E85D24" fill-opacity="0.12"/>
    <rect x="160" y="120" width="56" height="10" rx="3" fill="#E85D24" fill-opacity="0.15"/>
  </g>
  <!-- Sparkle -->
  <path d="M136 28 L138 34 L144 32 L140 38 L146 40 L138 42 L136 48 L134 42 L126 40 L132 38 L128 32 L134 34 Z" fill="#FF8C42" fill-opacity="0.5"/>
</svg>
